<svg xmlns="http://www.w3.org/2000/svg" width="440" height="280" viewBox="0 0 440 280" role="img" aria-label="Goshen Terminal promotional artwork with HOPPER and phosphor instrument panels">
<defs>
  <radialGradient id="warm"><stop stop-color="#51452a" stop-opacity=".72"/><stop offset="1" stop-color="#10150e" stop-opacity="0"/></radialGradient>
  <pattern id="scan" width="4" height="4" patternUnits="userSpaceOnUse"><rect width="4" height="1" fill="#000" opacity=".28"/></pattern>
  <filter id="glow" x="-50%" y="-50%" width="200%" height="200%"><feGaussianBlur stdDeviation="3"/></filter>
</defs>
<rect width="440" height="280" fill="#10140e"/>
<ellipse cx="306" cy="164" rx="225" ry="181" fill="url(#warm)"/>
<rect x="12.5" y="12.5" width="415" height="255" rx="3" fill="none" stroke="#4d583d"/>
<path d="M26 61.5h388" stroke="#4d583d"/>
<text x="28" y="43" font-family="Consolas,Liberation Mono,monospace" font-size="20" font-weight="700" letter-spacing="1.5" fill="#efb866">GOSHEN TERMINAL</text>
<circle cx="378" cy="36" r="3" fill="#a4d796"/><circle cx="391" cy="36" r="3" fill="#efb866"/><circle cx="404" cy="36" r="3" fill="#596348"/>
<rect x="29" y="79" width="152" height="139" fill="#0c100b" stroke="#4d583d"/>
<rect x="44" y="101" width="48" height="4" fill="#7b8866"/>
<rect x="44" y="118" width="74" height="4" fill="#a4d796"/>
<rect x="44" y="135" width="42" height="4" fill="#7b8866"/>
<rect x="44" y="152" width="90" height="4" fill="#7b8866"/>
<rect x="44" y="169" width="66" height="4" fill="#7b8866"/>
<path d="M44 182h122" stroke="#3b4830"/>
<rect x="44" y="197" width="5" height="10" fill="#efb866"/>
<rect x="54" y="197" width="5" height="10" fill="#efb866"/>
<rect x="64" y="197" width="5" height="10" fill="#efb866"/>
<rect x="74" y="197" width="5" height="10" fill="#efb866"/>
<rect x="84" y="197" width="5" height="10" fill="#efb866"/>
<rect x="94" y="197" width="5" height="10" fill="#efb866"/>
<rect x="104" y="197" width="5" height="10" fill="#343b2c"/>
<rect x="114" y="197" width="5" height="10" fill="#343b2c"/>
<rect x="124" y="197" width="5" height="10" fill="#343b2c"/>
<rect x="134" y="197" width="5" height="10" fill="#343b2c"/>
<rect x="198" y="79" width="212" height="139" fill="#0c100b" stroke="#4d583d"/>
<g opacity=".55" filter="url(#glow)"><rect x="266" y="82" width="6" height="9" fill="#efb866"/>
<rect x="272" y="82" width="6" height="9" fill="#efb866"/>
<rect x="314" y="82" width="6" height="9" fill="#efb866"/>
<rect x="320" y="82" width="6" height="9" fill="#efb866"/>
<rect x="266" y="91" width="6" height="9" fill="#efb866"/>
<rect x="272" y="91" width="6" height="9" fill="#7e6037"/>
<rect x="278" y="91" width="6" height="9" fill="#efb866"/>
<rect x="308" y="91" width="6" height="9" fill="#efb866"/>
<rect x="314" y="91" width="6" height="9" fill="#7e6037"/>
<rect x="320" y="91" width="6" height="9" fill="#efb866"/>
<rect x="266" y="100" width="6" height="9" fill="#efb866"/>
<rect x="272" y="100" width="6" height="9" fill="#7e6037"/>
<rect x="278" y="100" width="6" height="9" fill="#efb866"/>
<rect x="308" y="100" width="6" height="9" fill="#efb866"/>
<rect x="314" y="100" width="6" height="9" fill="#7e6037"/>
<rect x="320" y="100" width="6" height="9" fill="#efb866"/>
<rect x="266" y="109" width="6" height="9" fill="#efb866"/>
<rect x="272" y="109" width="6" height="9" fill="#7e6037"/>
<rect x="278" y="109" width="6" height="9" fill="#efb866"/>
<rect x="308" y="109" width="6" height="9" fill="#efb866"/>
<rect x="314" y="109" width="6" height="9" fill="#7e6037"/>
<rect x="320" y="109" width="6" height="9" fill="#efb866"/>
<rect x="260" y="118" width="6" height="9" fill="#efb866"/>
<rect x="266" y="118" width="6" height="9" fill="#efb866"/>
<rect x="272" y="118" width="6" height="9" fill="#efb866"/>
<rect x="278" y="118" width="6" height="9" fill="#efb866"/>
<rect x="284" y="118" width="6" height="9" fill="#efb866"/>
<rect x="290" y="118" width="6" height="9" fill="#efb866"/>
<rect x="296" y="118" width="6" height="9" fill="#efb866"/>
<rect x="302" y="118" width="6" height="9" fill="#efb866"/>
<rect x="308" y="118" width="6" height="9" fill="#efb866"/>
<rect x="314" y="118" width="6" height="9" fill="#efb866"/>
<rect x="320" y="118" width="6" height="9" fill="#efb866"/>
<rect x="326" y="118" width="6" height="9" fill="#efb866"/>
<rect x="254" y="127" width="6" height="9" fill="#efb866"/>
<rect x="260" y="127" width="6" height="9" fill="#efb866"/>
<rect x="266" y="127" width="6" height="9" fill="#efb866"/>
<rect x="284" y="127" width="6" height="9" fill="#efb866"/>
<rect x="290" y="127" width="6" height="9" fill="#efb866"/>
<rect x="296" y="127" width="6" height="9" fill="#efb866"/>
<rect x="302" y="127" width="6" height="9" fill="#efb866"/>
<rect x="320" y="127" width="6" height="9" fill="#efb866"/>
<rect x="326" y="127" width="6" height="9" fill="#efb866"/>
<rect x="332" y="127" width="6" height="9" fill="#efb866"/>
<rect x="254" y="136" width="6" height="9" fill="#efb866"/>
<rect x="260" y="136" width="6" height="9" fill="#efb866"/>
<rect x="266" y="136" width="6" height="9" fill="#efb866"/>
<rect x="284" y="136" width="6" height="9" fill="#efb866"/>
<rect x="290" y="136" width="6" height="9" fill="#efb866"/>
<rect x="296" y="136" width="6" height="9" fill="#efb866"/>
<rect x="302" y="136" width="6" height="9" fill="#efb866"/>
<rect x="320" y="136" width="6" height="9" fill="#efb866"/>
<rect x="326" y="136" width="6" height="9" fill="#efb866"/>
<rect x="332" y="136" width="6" height="9" fill="#efb866"/>
<rect x="260" y="145" width="6" height="9" fill="#efb866"/>
<rect x="266" y="145" width="6" height="9" fill="#efb866"/>
<rect x="272" y="145" width="6" height="9" fill="#efb866"/>
<rect x="278" y="145" width="6" height="9" fill="#efb866"/>
<rect x="284" y="145" width="6" height="9" fill="#efb866"/>
<rect x="296" y="145" width="6" height="4.5" fill="#efb866"/>
<rect x="308" y="145" width="6" height="9" fill="#efb866"/>
<rect x="314" y="145" width="6" height="9" fill="#efb866"/>
<rect x="320" y="145" width="6" height="9" fill="#efb866"/>
<rect x="326" y="145" width="6" height="9" fill="#efb866"/>
<rect x="272" y="154" width="6" height="9" fill="#efb866"/>
<rect x="278" y="154" width="6" height="9" fill="#efb866"/>
<rect x="284" y="154" width="6" height="9" fill="#efb866"/>
<rect x="290" y="154" width="6" height="4.5" fill="#efb866"/>
<rect x="302" y="154" width="6" height="4.5" fill="#efb866"/>
<rect x="308" y="154" width="6" height="9" fill="#efb866"/>
<rect x="314" y="154" width="6" height="9" fill="#efb866"/>
<rect x="260" y="163" width="6" height="9" fill="#efb866"/>
<rect x="266" y="163" width="6" height="9" fill="#efb866"/>
<rect x="272" y="163" width="6" height="9" fill="#efb866"/>
<rect x="278" y="163" width="6" height="9" fill="#efb866"/>
<rect x="284" y="163" width="6" height="9" fill="#efb866"/>
<rect x="290" y="163" width="6" height="9" fill="#efb866"/>
<rect x="296" y="163" width="6" height="9" fill="#efb866"/>
<rect x="302" y="163" width="6" height="9" fill="#efb866"/>
<rect x="308" y="163" width="6" height="9" fill="#efb866"/>
<rect x="314" y="163" width="6" height="9" fill="#efb866"/>
<rect x="320" y="163" width="6" height="9" fill="#efb866"/>
<rect x="326" y="163" width="6" height="9" fill="#efb866"/>
<rect x="344" y="163" width="6" height="9" fill="#efb866"/>
<rect x="350" y="163" width="6" height="9" fill="#efb866"/>
<rect x="254" y="172" width="6" height="9" fill="#efb866"/>
<rect x="260" y="172" width="6" height="9" fill="#efb866"/>
<rect x="266" y="172" width="6" height="9" fill="#efb866"/>
<rect x="272" y="172" width="6" height="9" fill="#efb866"/>
<rect x="278" y="172" width="6" height="9" fill="#efb866"/>
<rect x="284" y="172" width="6" height="9" fill="#efb866"/>
<rect x="290" y="172" width="6" height="9" fill="#efb866"/>
<rect x="296" y="172" width="6" height="9" fill="#efb866"/>
<rect x="302" y="172" width="6" height="9" fill="#efb866"/>
<rect x="308" y="172" width="6" height="9" fill="#efb866"/>
<rect x="314" y="172" width="6" height="9" fill="#efb866"/>
<rect x="320" y="172" width="6" height="9" fill="#efb866"/>
<rect x="326" y="172" width="6" height="9" fill="#efb866"/>
<rect x="332" y="172" width="6" height="9" fill="#efb866"/>
<rect x="338" y="172" width="6" height="9" fill="#efb866"/>
<rect x="350" y="172" width="6" height="9" fill="#efb866"/>
<rect x="266" y="181" width="6" height="9" fill="#efb866"/>
<rect x="272" y="181" width="6" height="9" fill="#efb866"/>
<rect x="278" y="181" width="6" height="9" fill="#efb866"/>
<rect x="284" y="181" width="6" height="9" fill="#efb866"/>
<rect x="302" y="181" width="6" height="9" fill="#efb866"/>
<rect x="308" y="181" width="6" height="9" fill="#efb866"/>
<rect x="314" y="181" width="6" height="9" fill="#efb866"/>
<rect x="320" y="181" width="6" height="9" fill="#efb866"/>
<rect x="266" y="190" width="6" height="9" fill="#efb866"/>
<rect x="272" y="190" width="6" height="9" fill="#efb866"/>
<rect x="278" y="190" width="6" height="9" fill="#efb866"/>
<rect x="284" y="190" width="6" height="9" fill="#efb866"/>
<rect x="302" y="190" width="6" height="9" fill="#efb866"/>
<rect x="308" y="190" width="6" height="9" fill="#efb866"/>
<rect x="314" y="190" width="6" height="9" fill="#efb866"/>
<rect x="320" y="190" width="6" height="9" fill="#efb866"/></g>
<g><rect x="266" y="82" width="6" height="9" fill="#efb866"/>
<rect x="272" y="82" width="6" height="9" fill="#efb866"/>
<rect x="314" y="82" width="6" height="9" fill="#efb866"/>
<rect x="320" y="82" width="6" height="9" fill="#efb866"/>
<rect x="266" y="91" width="6" height="9" fill="#efb866"/>
<rect x="272" y="91" width="6" height="9" fill="#7e6037"/>
<rect x="278" y="91" width="6" height="9" fill="#efb866"/>
<rect x="308" y="91" width="6" height="9" fill="#efb866"/>
<rect x="314" y="91" width="6" height="9" fill="#7e6037"/>
<rect x="320" y="91" width="6" height="9" fill="#efb866"/>
<rect x="266" y="100" width="6" height="9" fill="#efb866"/>
<rect x="272" y="100" width="6" height="9" fill="#7e6037"/>
<rect x="278" y="100" width="6" height="9" fill="#efb866"/>
<rect x="308" y="100" width="6" height="9" fill="#efb866"/>
<rect x="314" y="100" width="6" height="9" fill="#7e6037"/>
<rect x="320" y="100" width="6" height="9" fill="#efb866"/>
<rect x="266" y="109" width="6" height="9" fill="#efb866"/>
<rect x="272" y="109" width="6" height="9" fill="#7e6037"/>
<rect x="278" y="109" width="6" height="9" fill="#efb866"/>
<rect x="308" y="109" width="6" height="9" fill="#efb866"/>
<rect x="314" y="109" width="6" height="9" fill="#7e6037"/>
<rect x="320" y="109" width="6" height="9" fill="#efb866"/>
<rect x="260" y="118" width="6" height="9" fill="#efb866"/>
<rect x="266" y="118" width="6" height="9" fill="#efb866"/>
<rect x="272" y="118" width="6" height="9" fill="#efb866"/>
<rect x="278" y="118" width="6" height="9" fill="#efb866"/>
<rect x="284" y="118" width="6" height="9" fill="#efb866"/>
<rect x="290" y="118" width="6" height="9" fill="#efb866"/>
<rect x="296" y="118" width="6" height="9" fill="#efb866"/>
<rect x="302" y="118" width="6" height="9" fill="#efb866"/>
<rect x="308" y="118" width="6" height="9" fill="#efb866"/>
<rect x="314" y="118" width="6" height="9" fill="#efb866"/>
<rect x="320" y="118" width="6" height="9" fill="#efb866"/>
<rect x="326" y="118" width="6" height="9" fill="#efb866"/>
<rect x="254" y="127" width="6" height="9" fill="#efb866"/>
<rect x="260" y="127" width="6" height="9" fill="#efb866"/>
<rect x="266" y="127" width="6" height="9" fill="#efb866"/>
<rect x="284" y="127" width="6" height="9" fill="#efb866"/>
<rect x="290" y="127" width="6" height="9" fill="#efb866"/>
<rect x="296" y="127" width="6" height="9" fill="#efb866"/>
<rect x="302" y="127" width="6" height="9" fill="#efb866"/>
<rect x="320" y="127" width="6" height="9" fill="#efb866"/>
<rect x="326" y="127" width="6" height="9" fill="#efb866"/>
<rect x="332" y="127" width="6" height="9" fill="#efb866"/>
<rect x="254" y="136" width="6" height="9" fill="#efb866"/>
<rect x="260" y="136" width="6" height="9" fill="#efb866"/>
<rect x="266" y="136" width="6" height="9" fill="#efb866"/>
<rect x="284" y="136" width="6" height="9" fill="#efb866"/>
<rect x="290" y="136" width="6" height="9" fill="#efb866"/>
<rect x="296" y="136" width="6" height="9" fill="#efb866"/>
<rect x="302" y="136" width="6" height="9" fill="#efb866"/>
<rect x="320" y="136" width="6" height="9" fill="#efb866"/>
<rect x="326" y="136" width="6" height="9" fill="#efb866"/>
<rect x="332" y="136" width="6" height="9" fill="#efb866"/>
<rect x="260" y="145" width="6" height="9" fill="#efb866"/>
<rect x="266" y="145" width="6" height="9" fill="#efb866"/>
<rect x="272" y="145" width="6" height="9" fill="#efb866"/>
<rect x="278" y="145" width="6" height="9" fill="#efb866"/>
<rect x="284" y="145" width="6" height="9" fill="#efb866"/>
<rect x="296" y="145" width="6" height="4.5" fill="#efb866"/>
<rect x="308" y="145" width="6" height="9" fill="#efb866"/>
<rect x="314" y="145" width="6" height="9" fill="#efb866"/>
<rect x="320" y="145" width="6" height="9" fill="#efb866"/>
<rect x="326" y="145" width="6" height="9" fill="#efb866"/>
<rect x="272" y="154" width="6" height="9" fill="#efb866"/>
<rect x="278" y="154" width="6" height="9" fill="#efb866"/>
<rect x="284" y="154" width="6" height="9" fill="#efb866"/>
<rect x="290" y="154" width="6" height="4.5" fill="#efb866"/>
<rect x="302" y="154" width="6" height="4.5" fill="#efb866"/>
<rect x="308" y="154" width="6" height="9" fill="#efb866"/>
<rect x="314" y="154" width="6" height="9" fill="#efb866"/>
<rect x="260" y="163" width="6" height="9" fill="#efb866"/>
<rect x="266" y="163" width="6" height="9" fill="#efb866"/>
<rect x="272" y="163" width="6" height="9" fill="#efb866"/>
<rect x="278" y="163" width="6" height="9" fill="#efb866"/>
<rect x="284" y="163" width="6" height="9" fill="#efb866"/>
<rect x="290" y="163" width="6" height="9" fill="#efb866"/>
<rect x="296" y="163" width="6" height="9" fill="#efb866"/>
<rect x="302" y="163" width="6" height="9" fill="#efb866"/>
<rect x="308" y="163" width="6" height="9" fill="#efb866"/>
<rect x="314" y="163" width="6" height="9" fill="#efb866"/>
<rect x="320" y="163" width="6" height="9" fill="#efb866"/>
<rect x="326" y="163" width="6" height="9" fill="#efb866"/>
<rect x="344" y="163" width="6" height="9" fill="#efb866"/>
<rect x="350" y="163" width="6" height="9" fill="#efb866"/>
<rect x="254" y="172" width="6" height="9" fill="#efb866"/>
<rect x="260" y="172" width="6" height="9" fill="#efb866"/>
<rect x="266" y="172" width="6" height="9" fill="#efb866"/>
<rect x="272" y="172" width="6" height="9" fill="#efb866"/>
<rect x="278" y="172" width="6" height="9" fill="#efb866"/>
<rect x="284" y="172" width="6" height="9" fill="#efb866"/>
<rect x="290" y="172" width="6" height="9" fill="#efb866"/>
<rect x="296" y="172" width="6" height="9" fill="#efb866"/>
<rect x="302" y="172" width="6" height="9" fill="#efb866"/>
<rect x="308" y="172" width="6" height="9" fill="#efb866"/>
<rect x="314" y="172" width="6" height="9" fill="#efb866"/>
<rect x="320" y="172" width="6" height="9" fill="#efb866"/>
<rect x="326" y="172" width="6" height="9" fill="#efb866"/>
<rect x="332" y="172" width="6" height="9" fill="#efb866"/>
<rect x="338" y="172" width="6" height="9" fill="#efb866"/>
<rect x="350" y="172" width="6" height="9" fill="#efb866"/>
<rect x="266" y="181" width="6" height="9" fill="#efb866"/>
<rect x="272" y="181" width="6" height="9" fill="#efb866"/>
<rect x="278" y="181" width="6" height="9" fill="#efb866"/>
<rect x="284" y="181" width="6" height="9" fill="#efb866"/>
<rect x="302" y="181" width="6" height="9" fill="#efb866"/>
<rect x="308" y="181" width="6" height="9" fill="#efb866"/>
<rect x="314" y="181" width="6" height="9" fill="#efb866"/>
<rect x="320" y="181" width="6" height="9" fill="#efb866"/>
<rect x="266" y="190" width="6" height="9" fill="#efb866"/>
<rect x="272" y="190" width="6" height="9" fill="#efb866"/>
<rect x="278" y="190" width="6" height="9" fill="#efb866"/>
<rect x="284" y="190" width="6" height="9" fill="#efb866"/>
<rect x="302" y="190" width="6" height="9" fill="#efb866"/>
<rect x="308" y="190" width="6" height="9" fill="#efb866"/>
<rect x="314" y="190" width="6" height="9" fill="#efb866"/>
<rect x="320" y="190" width="6" height="9" fill="#efb866"/></g>
<path d="M219 203h24l5-4 4 8 5-4h35l4-6 5 9 4-3h26l3-4 5 7 4-3h47" fill="none" stroke="#a4d796"/>
<rect x="54" y="232" width="13" height="19" rx="6" fill="#14180f" stroke="#526040"/><path d="M58 247v-9m5 9v-9" stroke="#e99147" stroke-width="2"/>
<rect x="90" y="232" width="13" height="19" rx="6" fill="#14180f" stroke="#526040"/><path d="M94 247v-9m5 9v-9" stroke="#e99147" stroke-width="2"/>
<rect x="126" y="232" width="13" height="19" rx="6" fill="#14180f" stroke="#526040"/><path d="M130 247v-9m5 9v-9" stroke="#e99147" stroke-width="2"/>
<path d="M209 238h200m-200 6h156m-156 6h92" stroke="#36442b" stroke-width="2"/>
<rect x="28" y="64" width="384" height="191" fill="url(#scan)"/>
</svg>
